<svg width="18" height="18" viewBox="0 0 18 18" fill="none" xmlns="http://www.w3.org/2000/svg">
<path d="M9.00033 1.80375H9C7.57672 1.80375 6.1854 2.2258 5.00198 3.01654C3.81856 3.80727 2.8962 4.93117 2.35153 6.24611C1.80687 7.56106 1.66436 9.00798 1.94203 10.4039C2.2197 11.7999 2.90507 13.0821 3.91149 14.0885C4.9179 15.0949 6.20015 15.7803 7.59608 16.058C8.99202 16.3356 10.4389 16.1931 11.7539 15.6485C13.0688 15.1038 14.1927 14.1814 14.9835 12.998C15.7742 11.8146 16.1963 10.4233 16.1963 9V8.99967C16.1924 7.09236 15.4331 5.26426 14.0844 3.91559C12.7357 2.56691 10.9076 1.80755 9.00033 1.80375ZM6.42113 7.04588L6.42808 7.05514L6.43626 7.06335L8.36628 9L6.43714 10.9358C6.39544 10.9765 6.36226 11.0251 6.33954 11.0788C6.31661 11.133 6.30479 11.1912 6.30479 11.25C6.30479 11.3088 6.31661 11.367 6.33954 11.4212C6.36213 11.4746 6.39507 11.523 6.43645 11.5636C6.47703 11.6049 6.52541 11.6379 6.57879 11.6605C6.63296 11.6834 6.69118 11.6952 6.75 11.6952C6.80883 11.6952 6.86705 11.6834 6.92122 11.6605C6.97489 11.6377 7.02351 11.6046 7.06423 11.5629L9 9.63373L10.9358 11.5629C10.9765 11.6046 11.0251 11.6377 11.0788 11.6605C11.133 11.6834 11.1912 11.6952 11.25 11.6952C11.3088 11.6952 11.367 11.6834 11.4212 11.6605C11.4746 11.6379 11.523 11.6049 11.5636 11.5636C11.6049 11.523 11.6379 11.4746 11.6605 11.4212C11.6834 11.367 11.6952 11.3088 11.6952 11.25C11.6952 11.1912 11.6834 11.133 11.6605 11.0788C11.6377 11.0251 11.6046 10.9765 11.5629 10.9358L9.63373 9L11.5563 7.07078C11.6028 7.03373 11.6414 6.98774 11.6699 6.93547C11.7005 6.87934 11.7187 6.81728 11.7233 6.75351C11.7278 6.68973 11.7186 6.62573 11.6962 6.56583C11.6739 6.50593 11.6389 6.45154 11.5937 6.40633C11.5485 6.36112 11.4941 6.32615 11.4342 6.3038C11.3743 6.28144 11.3103 6.27222 11.2465 6.27675C11.1827 6.28128 11.1207 6.29946 11.0645 6.33007C11.0123 6.35856 10.9663 6.39719 10.9292 6.44366L9 8.36627L7.06335 6.43625L7.05515 6.42808L7.04588 6.42112C6.95994 6.35667 6.85364 6.32538 6.74649 6.333C6.63935 6.34061 6.53854 6.38662 6.46258 6.46258C6.38662 6.53854 6.34062 6.63934 6.333 6.74649C6.32539 6.85364 6.35668 6.95994 6.42113 7.04588ZM8.99982 15.3038C7.75312 15.3037 6.53442 14.934 5.49783 14.2414C4.46118 13.5487 3.65321 12.5642 3.1761 11.4123C2.69898 10.2605 2.57415 8.99301 2.81738 7.7702C3.06061 6.54739 3.66098 5.42417 4.54258 4.54258C5.42417 3.66098 6.54739 3.06061 7.7702 2.81737C8.99301 2.57414 10.2605 2.69898 11.4123 3.17609C12.5642 3.65321 13.5487 4.46118 14.2414 5.49782C14.934 6.53442 15.3037 7.75312 15.3038 8.99982C15.3019 10.6712 14.6372 12.2735 13.4554 13.4554C12.2735 14.6372 10.6712 15.3019 8.99982 15.3038Z" fill="#344054" stroke="#344054" stroke-width="0.33"/>
</svg>
